<?xml version="1.0" encoding="utf-8"?>
<!-- Generator: Adobe Illustrator 21.0.0, SVG Export Plug-In . SVG Version: 6.00 Build 0)  -->
<svg version="1.1" id="Layer_1" xmlns="http://www.w3.org/2000/svg" xmlns:xlink="http://www.w3.org/1999/xlink" x="0px" y="0px"
	 viewBox="0 0 1366 355" style="enable-background:new 0 0 1366 355;" xml:space="preserve">
<style type="text/css">
	.st0{fill:none;stroke:#000000;stroke-width:5;}
</style>
<path class="st0" d="M243.5,80.3v67.5l26.7-63.5l2.2-4h41.4c-17.6,30.7-24.9,52.7-42.2,88.6c16.8,41,26.3,67.6,43,103.7h-41.7
	c-5.7-14.9-15.9-44.4-28.8-79.7c0,18.4-0.5,61.2-0.5,79.7h-39.1V80.3H243.5z"/>
<path class="st0" d="M367.4,242.8c-2.4,9.9-4.9,19.8-7.2,29.8h-40.1L361,80.3h51.1L453,272.9h-40.3c-2.4-10-4.9-20-7.2-30
	L367.4,242.8L367.4,242.8z M386.4,120.9l-13.2,91.6h26.6L386.4,120.9z"/>
<path class="st0" d="M482.8,80.4c4.3,20.7,13,53.6,18.3,70.9c6.3-23.9,13.8-53.3,18.2-70.9h40.8c-5.6,16.2-39.4,115-39.4,115v77.2
	h-39.1v-76.1C462,144,451,105.1,442.1,80.4L482.8,80.4L482.8,80.4z"/>
<path class="st0" d="M604.3,80.3h8.5v7v153.7h44.1h8.6v6.9v17.8v7h-8.6h-74.6h-8.5v-7V87.2v-7h8.5H604.3z"/>
<path class="st0" d="M712.4,80.3h8.5v7v178.4v7h-8.5h-22.1h-8.5v-7V87.2v-7h8.5H712.4z"/>
<path class="st0" d="M744.1,80.3h52.4c21,77.2,22.1,74.2,38.2,131.1c0-29.7-1.4-101.4-1.4-131.1h39.1v192.3h-53.8
	c-22.2-75.7-24-79.9-35.6-126.7v126.7h-39L744.1,80.3L744.1,80.3z"/>
<path class="st0" d="M998.7,80.3h8.5v7v153.7h44.1h8.6v6.9v17.8v7h-8.6h-74.6h-8.5v-7V87.2v-7h8.5H998.7z"/>
<path class="st0" d="M1159.9,80.3h8.6v7v17.8v7h-8.6H1114v48.6h23.9h8.5v7v17.8v6.9h-8.5H1114v48.6h45.8h8.6v6.9v17.8v7h-8.6h-76.5
	h-8.5v-7V87.2v-7h8.5H1159.9z"/>
</svg>
